<svg id="Capa_1" enable-background="new 0 0 512 512" height="512" viewBox="0 0 512 512" width="512" xmlns="http://www.w3.org/2000/svg" xmlns:xlink="http://www.w3.org/1999/xlink"><linearGradient id="lg1"><stop offset="0" stop-color="#ff4747"/><stop offset="1" stop-color="#fff200"/></linearGradient><linearGradient id="SVGID_1_" gradientUnits="userSpaceOnUse" x1="74.98" x2="437.019" xlink:href="#lg1" y1="437.019" y2="74.98"/><radialGradient id="SVGID_2_" cx="257.013" cy="280.338" gradientUnits="userSpaceOnUse" r="256"><stop offset="0" stop-color="#ff4747"/><stop offset="1" stop-color="#fffa78" stop-opacity="0"/></radialGradient><linearGradient id="SVGID_3_" gradientUnits="userSpaceOnUse" x1="57.526" x2="815.837" xlink:href="#lg1" y1="319.346" y2="-438.965"/><linearGradient id="SVGID_4_" gradientUnits="userSpaceOnUse" x1="20.703" x2="716.424" xlink:href="#lg1" y1="650.739" y2="-44.982"/><linearGradient id="SVGID_5_" gradientUnits="userSpaceOnUse" x1="67.269" x2="635.939" xlink:href="#lg1" y1="459.17" y2="-109.499"/><linearGradient id="lg2"><stop offset="0" stop-color="#ffcb00"/><stop offset="1" stop-color="#fffa78"/></linearGradient><linearGradient id="SVGID_6_" gradientUnits="userSpaceOnUse" x1="279.397" x2="569.06" xlink:href="#lg2" y1="407.274" y2="117.611"/><linearGradient id="SVGID_7_" gradientUnits="userSpaceOnUse" x1="123.131" x2="501.376" xlink:href="#lg2" y1="518.545" y2="140.301"/><linearGradient id="SVGID_8_" gradientUnits="userSpaceOnUse" x1="-541.803" x2="360.411" xlink:href="#lg2" y1="1110.116" y2="207.903"/><linearGradient id="SVGID_9_" gradientUnits="userSpaceOnUse" x1="314.948" x2="488.298" y1="199.523" y2="199.523"><stop offset="0" stop-color="#ffcb00"/><stop offset=".0603" stop-color="#ffd519" stop-opacity=".94"/><stop offset=".1492" stop-color="#ffe036" stop-opacity=".851"/><stop offset=".2483" stop-color="#ffea4e" stop-opacity=".752"/><stop offset=".3597" stop-color="#fff161" stop-opacity=".64"/><stop offset=".4907" stop-color="#fff66e" stop-opacity=".509"/><stop offset=".6594" stop-color="#fff976" stop-opacity=".341"/><stop offset="1" stop-color="#fffa78" stop-opacity="0"/></linearGradient><linearGradient id="lg3"><stop offset="0" stop-color="#fffa78"/><stop offset="1" stop-color="#fff"/></linearGradient><linearGradient id="SVGID_10_" gradientUnits="userSpaceOnUse" x1="210.489" x2="422.478" xlink:href="#lg3" y1="320.755" y2="108.766"/><linearGradient id="SVGID_11_" gradientUnits="userSpaceOnUse" x1="-255.64" x2="407.989" xlink:href="#lg3" y1="755.729" y2="92.101"/><linearGradient id="SVGID_12_" gradientUnits="userSpaceOnUse" x1="207.822" x2="375.642" y1="214.768" y2="214.768"><stop offset="0" stop-color="#fff200"/><stop offset=".0157" stop-color="#fff310" stop-opacity=".984"/><stop offset=".0607" stop-color="#fff539" stop-opacity=".939"/><stop offset=".1112" stop-color="#fff85f" stop-opacity=".889"/><stop offset=".1662" stop-color="#fefa7f" stop-opacity=".834"/><stop offset=".227" stop-color="#fefb9b" stop-opacity=".773"/><stop offset=".2957" stop-color="#fefdb1" stop-opacity=".704"/><stop offset=".3758" stop-color="#fefec1" stop-opacity=".624"/><stop offset=".475" stop-color="#fefecd" stop-opacity=".525"/><stop offset=".614" stop-color="#feffd4" stop-opacity=".386"/><stop offset="1" stop-color="#feffd6" stop-opacity="0"/></linearGradient><linearGradient id="SVGID_13_" gradientUnits="userSpaceOnUse" x1="-325.097" x2="375.115" xlink:href="#lg3" y1="845.126" y2="144.914"/><linearGradient id="SVGID_14_" gradientUnits="userSpaceOnUse" x1="21.784" x2="306.939" xlink:href="#lg2" y1="506.813" y2="221.658"/><linearGradient id="SVGID_15_" gradientUnits="userSpaceOnUse" x1="-186.047" x2="209.517" xlink:href="#lg2" y1="699.261" y2="303.698"/><linearGradient id="SVGID_16_" gradientUnits="userSpaceOnUse" x1="-625.133" x2="213.192" xlink:href="#lg3" y1="1023.198" y2="184.873"/><g><circle cx="256" cy="256" fill="url(#SVGID_1_)" r="256"/><circle cx="256" cy="256" fill="url(#SVGID_2_)" r="256"/><path d="m87.686 123.896c-8.395.25-15.44 7.186-15.691 15.463-2.413 80.667-1.953 161.333 1.379 242 .347 8.277 7.411 15.286 15.733 15.617 20.107.787 40.215 1.432 60.323 1.935-2.428-92.156-2.73-184.312-.908-276.468-20.278.378-40.557.862-60.836 1.453z" fill="url(#SVGID_3_)"/><path d="m424.314 123.896c-10.139-.295-20.279-.564-30.418-.807 2.339 91.654 1.95 183.308-1.164 274.961 10.054-.323 20.108-.68 30.161-1.074 8.322-.33 15.386-7.34 15.733-15.617 3.332-80.667 3.792-161.333 1.379-242-.252-8.277-7.297-15.213-15.691-15.463z" fill="url(#SVGID_4_)"/><path d="m325.455 121.861c-64.047-.771-128.094-.475-192.141.885-1.966 86.851-1.766 173.702.6 260.554.234 8.396 7.195 15.398 15.517 15.611 17.091.427 34.183.752 51.274.974 6.33.083 12.326 3.176 16.167 8.369 5.766 7.79 14.689 12.424 24.129 12.46 10 .04 20 .04 30 0 9.439-.036 18.363-4.671 24.129-12.46 3.841-5.192 9.836-8.288 16.167-8.369 27.145-.352 54.29-.964 81.436-1.834 8.322-.273 15.334-7.285 15.625-15.625.258-7.557.496-15.114.713-22.671-25.616-78.013-54.717-157.717-83.616-237.894z" fill="url(#SVGID_5_)"/><path d="m271.281 331.041c-.004.004-15.298 7.705-15.281 38.452 48.418 0 96.836-.657 145.254-1.97 4.191-.114 7.695-3.597 7.816-7.768.289-10.076.542-20.152.758-30.228-46.183.918-92.365 1.423-138.547 1.514z" fill="url(#SVGID_6_)"/><path d="m240.666 300.296c.025 17.935.061 35.869.108 53.804 5.089 5.137 10.165 10.269 15.226 15.394-.016-16.916 13.723-30.745 30.528-30.816 38.5-.165 76.999-.643 115.498-1.433 4.214-.09 7.711-3.544 7.801-7.718.216-10.076.395-20.152.537-30.228-56.566.738-113.132 1.07-169.698.997z" fill="url(#SVGID_7_)"/><path d="m400.579 92.998c-22.669-.723-45.338-1.275-68.008-1.658 1.281 72.122 1.635 144.244 1.065 216.366 22.984-.171 45.969-.417 68.953-.739 4.231-.061 7.716-3.495 7.775-7.667.933-66.166.278-132.331-1.966-198.497-.143-4.175-3.647-7.669-7.819-7.805z" fill="url(#SVGID_8_)"/><path d="m400.579 92.998c-22.669-.723-45.338-1.275-68.008-1.658 1.281 72.122 1.635 144.244 1.065 216.366 22.984-.171 45.969-.417 68.953-.739 4.231-.061 7.716-3.495 7.775-7.667.933-66.166.278-132.331-1.966-198.497-.143-4.175-3.647-7.669-7.819-7.805z" fill="url(#SVGID_9_)"/><path d="m347.684 91.62c-10.075-.204-20.15-.374-30.226-.51-14.599 35.912-29.763 72.047-45.08 108.242 15.392 36.224 30.841 72.431 45.935 108.457 5.108-.03 10.215-.064 15.323-.103 16.844-.138 30.799-14.01 30.906-30.765.712-71.973-16.786-185.256-16.858-185.321z" fill="url(#SVGID_10_)"/><path d="m324.247 262.526c-3.421-.875-5.736-4.057-5.731-7.584.072-54.611-.28-109.221-1.057-163.832-10.411-.141-20.822-.246-31.233-.316-16.601-.113-30.205 13.739-30.226 30.649-20.279 31.092-40.903 62.29-61.468 93.345 20.388 41.184 41.116 82.613 61.468 123.955-.012-16.915 13.781-30.747 30.646-30.795 10.556-.031 21.112-.078 31.667-.141 12.635-.083 23.074-10.494 23.15-23.105.063-10.642-7.296-19.629-17.216-22.176z" fill="url(#SVGID_11_)"/><path d="m347.684 91.62c-20.486-.414-40.972-.689-61.459-.826-16.601-.113-30.205 13.739-30.226 30.649-20.279 31.092-40.903 62.29-61.468 93.345 20.388 41.184 41.116 82.613 61.468 123.955-.012-16.915 13.781-30.747 30.646-30.795 15.663-.046 31.327-.127 46.99-.243 16.844-.138 30.799-14.01 30.906-30.765.713-71.972-16.785-185.255-16.857-185.32z" fill="url(#SVGID_12_)"/><path d="m332.159 69.705c1.151 56.63 1.731 113.262 1.74 169.892.001 3.632 2.564 6.759 6.137 7.485 13.996 2.851 24.597 15.179 24.505 29.857.687.001-.561-168.219-1.745-184.989-.336-13.212-9.082-24.776-20.81-29.262-4.905-1.876-9.93 1.744-9.827 7.017z" fill="url(#SVGID_13_)"/><path d="m225.438 330.996c-41.089-.163-82.177-.652-123.266-1.469.216 10.076.468 20.152.758 30.228.121 4.172 3.624 7.655 7.816 7.768 48.418 1.313 96.836 1.97 145.254 1.97.021-16.914-13.732-38.433-30.562-38.497z" fill="url(#SVGID_14_)"/><path d="m225.332 300.266c-41.232-.107-82.464-.429-123.696-.967.142 10.076.321 20.152.537 30.228.09 4.173 3.587 7.629 7.801 7.718 38.5.79 76.999 1.267 115.498 1.433 16.804.071 30.544 13.9 30.528 30.816 0-10.25 0-20.5 0-30.75.015-16.915-13.787-38.437-30.668-38.478z" fill="url(#SVGID_15_)"/><path d="m225.774 90.794c-38.118.254-76.236.988-114.353 2.204-4.172.136-7.677 3.632-7.819 7.804-2.243 66.166-2.899 132.331-1.966 198.497.06 4.174 3.544 7.607 7.775 7.667 38.648.542 77.296.869 115.943.982 16.865.049 30.657 13.881 30.646 30.795 0-72.433 0-144.867 0-217.3-.021-16.908-13.624-30.765-30.226-30.649z" fill="url(#SVGID_16_)"/></g></svg>