<svg xmlns="http://www.w3.org/2000/svg" version="1.1" xmlns:xlink="http://www.w3.org/1999/xlink" xmlns:svgjs="http://svgjs.com/svgjs" width="512" height="512" x="0" y="0" viewBox="0 0 64 64" style="enable-background:new 0 0 512 512" xml:space="preserve"><g><g xmlns="http://www.w3.org/2000/svg" id="Filled_outline" data-name="Filled outline"><path d="m12 7h2v4h-2v4h2v4h-2v24h2v4h-2v4h2v4h-2v4a2 2 0 0 0 2 2h36a2 2 0 0 0 2-2v-17h-2v-4h2v-4h-2v-4h2v-25a2 2 0 0 0 -2-2h-36a2 2 0 0 0 -2 2z" fill="#2D75BB" data-original="#2d75bb"></path><path d="m29 42h8v30h-8z" fill="#50B4F8" transform="matrix(0 -1 1 0 -24 90)" data-original="#50b4f8"></path><path d="m22 57h4v4h-4z" fill="#FCF05A" transform="matrix(0 -1 1 0 -35 83)" data-original="#fcf05a"></path><path d="m30 57h4v4h-4z" fill="#FCF05A" transform="matrix(0 -1 1 0 -27 91)" data-original="#fcf05a"></path><path d="m38 56h2v2h-2z" fill="#F4F4E6" data-original="#f4f4e6"></path><path d="m42 56h2v2h-2z" fill="#F4F4E6" data-original="#f4f4e6"></path><path d="m18 3h20v20h-20z" fill="#CFDFE8" data-original="#cfdfe8"></path><path d="m46 49h-12v-10l5-6h7z" fill="#CFDFE8" data-original="#cfdfe8"></path><path d="m41 36h2v2h-2z" fill="#F4F4E6" data-original="#f4f4e6"></path><path d="m42 11h10v4h-10z" fill="#50B4F8" data-original="#50b4f8"></path><path d="m42 19h10v4h-10z" fill="#50B4F8" data-original="#50b4f8"></path><g fill="#FCF05A"><path d="m47 6h2v2h-2z" fill="#FCF05A" data-original="#fcf05a"></path><path d="m43 6h2v2h-2z" fill="#FCF05A" data-original="#fcf05a"></path><circle cx="28" cy="13" r="6" fill="#FCF05A" data-original="#fcf05a"></circle></g><circle cx="18" cy="29" fill="#F4F4E6" r="2" data-original="#f4f4e6"></circle><circle cx="26" cy="29" fill="#F4F4E6" r="2" data-original="#f4f4e6"></circle><circle cx="34" cy="29" fill="#F4F4E6" r="2" data-original="#f4f4e6"></circle><circle cx="28" cy="13" fill="#E97424" r="2" data-original="#e97424"></circle><path d="m20 38h8v8h-8z" fill="#CFDFE8" data-original="#cfdfe8"></path><path d="m11 54v5a3 3 0 0 0 3 3h36a3 3 0 0 0 3-3v-18h-2v-2h2v-6h-2v-2h2v-26a3 3 0 0 0 -3-3h-36a3 3 0 0 0 -3 3v3h2v2h-2v6h2v2h-2v26h2v2h-2v6h2v2zm14 6h-2v-2h2zm8 0h-2v-2h2zm14 0h-12v-4h-6v4h-2v-4h-6v4h-2v-6h28zm4-38h-8v-2h8zm0-8h-8v-2h8zm-32-10h18v18h-18zm-6 46v-2h2v-6h-2v-22h2v-6h-2v-2h2v-6h-2v-1a1 1 0 0 1 1-1h3v20h22v-20h11a1 1 0 0 1 1 1v5h-10v6h10v2h-10v6h10v5h-2v6h2v2h-2v6h2v16a1 1 0 0 1 -1 1h-1v-8h-32v8h-3a1 1 0 0 1 -1-1v-3h2v-6z" fill="#000000" data-original="#000000"></path><path d="m38 56h2v2h-2z" fill="#000000" data-original="#000000"></path><path d="m42 56h2v2h-2z" fill="#000000" data-original="#000000"></path><path d="m21 35h-2v2h-2v2h2v2h-2v2h2v2h-2v2h2v2h2v-2h2v2h2v-2h2v2h2v-2h2v-2h-2v-2h2v-2h-2v-2h2v-2h-2v-2h-2v2h-2v-2h-2v2h-2zm6 4v6h-6v-6z" fill="#000000" data-original="#000000"></path><path d="m33 50h14v-20h-2v2h-2v-2h-2v2h-2.469l-5.531 6.638zm2-10.638 4.469-5.362h5.531v14h-10z" fill="#000000" data-original="#000000"></path><path d="m41 44h-4v2h6v-6h-2z" fill="#000000" data-original="#000000"></path><path d="m41 36h2v2h-2z" fill="#000000" data-original="#000000"></path><path d="m47 6h2v2h-2z" fill="#000000" data-original="#000000"></path><path d="m43 6h2v2h-2z" fill="#000000" data-original="#000000"></path><path d="m28 6a7 7 0 1 0 7 7 7.008 7.008 0 0 0 -7-7zm1 2.1a4.961 4.961 0 0 1 1.753.732l-1.468 1.468a2.746 2.746 0 0 0 -.285-.116zm-2 0v2.083a2.746 2.746 0 0 0 -.285.117l-1.468-1.467a4.961 4.961 0 0 1 1.753-.733zm-3.167 2.146 1.467 1.469a2.746 2.746 0 0 0 -.117.285h-2.083a4.961 4.961 0 0 1 .733-1.753zm-.733 3.754h2.083a2.746 2.746 0 0 0 .117.285l-1.468 1.468a4.961 4.961 0 0 1 -.732-1.753zm3.9 3.9a4.961 4.961 0 0 1 -1.753-.732l1.468-1.468a2.746 2.746 0 0 0 .285.117zm1-3.9a1 1 0 1 1 1-1 1 1 0 0 1 -1 1zm1 3.9v-2.084a2.746 2.746 0 0 0 .285-.117l1.468 1.468a4.961 4.961 0 0 1 -1.753.733zm3.167-2.146-1.467-1.469a2.746 2.746 0 0 0 .116-.285h2.084a4.961 4.961 0 0 1 -.733 1.753zm-1.351-3.754a2.746 2.746 0 0 0 -.117-.285l1.468-1.468a4.961 4.961 0 0 1 .733 1.753z" fill="#000000" data-original="#000000"></path><path d="m18 32a3 3 0 1 0 -3-3 3 3 0 0 0 3 3zm0-4a1 1 0 1 1 -1 1 1 1 0 0 1 1-1z" fill="#000000" data-original="#000000"></path><path d="m26 32a3 3 0 1 0 -3-3 3 3 0 0 0 3 3zm0-4a1 1 0 1 1 -1 1 1 1 0 0 1 1-1z" fill="#000000" data-original="#000000"></path><path d="m34 32a3 3 0 1 0 -3-3 3 3 0 0 0 3 3zm0-4a1 1 0 1 1 -1 1 1 1 0 0 1 1-1z" fill="#000000" data-original="#000000"></path></g></g></svg>