<svg id="vector" xmlns="http://www.w3.org/2000/svg" width="72" height="72" viewBox="0 0 512 512"><path fill="#000000" d="M481,206.52V95.23l-110.17,41.97c-1.46,-35.1 -12.77,-67.98 -32.23,-93.27C316.81,15.6 287.47,0 256,0s-60.81,15.6 -82.6,43.93c-19.46,25.3 -30.77,58.17 -32.23,93.27L31,95.23v111.29C12.67,215.45 0,234.27 0,256s12.67,40.55 31,49.48v121.81L250.61,512h10.77L481,427.29V305.48c18.33,-8.93 31,-27.75 31,-49.48S499.33,215.45 481,206.52zM241,476.14L61,406.71v-96.04c27.51,-3 49,-26.37 49,-54.67s-21.49,-51.67 -49,-54.67v-62.57l180,68.57V476.14zM451,201.33c-27.51,3 -49,26.37 -49,54.67s21.49,51.67 49,54.67v96.04l-180,69.43v-268.8l180,-68.57V201.33z" id="path_0"/></svg>