<svg width="666.66669" height="666.66669" xmlns="http://www.w3.org/2000/svg" version="1.1" xml:space="preserve">
 <metadata id="metadata8">image/svg+xml</metadata>

 <g>
  <title>Layer 1</title>
  <path stroke="null" fill-rule="nonzero" fill="#ffffff" d="m452.54378,347.02604c-44.93047,0 -81.48345,-36.55298 -81.48345,-81.48345c0,-44.93047 36.55298,-81.48345 81.48345,-81.48345c44.92679,0 81.49818,36.55298 81.49818,81.48345c0,44.93047 -36.5714,81.48345 -81.49818,81.48345zm0,-218.94578c-50.02549,0 -93.81759,26.72398 -117.85222,66.67363c-0.45314,0.75523 -0.90259,1.51414 -1.3373,2.29147c-11.63049,20.17008 -18.27649,43.55632 -18.27649,68.49723c0,8.30749 0.74049,16.43447 2.15148,24.32567c2.8146,15.83766 8.35907,30.71747 16.12501,44.17156c9.19166,15.99976 21.54423,29.97698 36.19194,41.08434c23.05836,17.49916 51.80856,27.88076 82.99758,27.88076c75.91687,0 137.46233,-61.54178 137.46233,-137.46233c0,-75.92056 -61.54546,-137.46233 -137.46233,-137.46233" id="path30"/>
  <path stroke="null" fill-rule="nonzero" fill="#66bb6a" d="m172.40621,485.92146c0.91732,0.47892 1.80149,1.00206 2.6525,1.57308c-0.85101,-0.57103 -1.73518,-1.09416 -2.6525,-1.57308zm-6.63494,-2.4683c1.41098,0.32788 2.77408,0.76628 4.09296,1.2931c-1.31888,-0.52682 -2.68198,-0.96522 -4.09296,-1.2931zm16.92076,42.94478c3.01722,-4.47242 4.78188,-9.86584 4.78188,-15.66819c0,-8.38118 -3.68772,-15.90397 -9.53059,-21.03951c5.84288,5.13554 9.53059,12.65834 9.53059,21.03951c0,5.80235 -1.76465,11.19578 -4.78188,15.66819zm137.16761,-195.16903c0.16947,-3.01354 0.25788,-6.04918 0.25788,-9.10693c0,3.05775 -0.08842,6.09339 -0.25788,9.10693zm-1.31888,13.40251c0.4163,-2.93986 0.75154,-5.90919 1.00206,-8.90062c-0.25051,2.99143 -0.58576,5.96077 -1.00206,8.90062zm-104.41287,2.39462c-44.93047,0 -81.47976,-36.55298 -81.47976,-81.48345c0,-44.93047 36.54929,-81.48345 81.47976,-81.48345c44.93047,0 81.50187,36.55298 81.50187,81.48345c0,44.93047 -36.5714,81.48345 -81.50187,81.48345zm119.22637,-12.98622c-0.47524,0.82522 -0.99837,1.61729 -1.48835,2.43146c0.48998,-0.81417 1.01311,-1.60624 1.48835,-2.43146c-7.76594,-13.45409 -13.31041,-28.3339 -16.12501,-44.17156l-0.3463,0.07368c1.05732,5.19817 1.86412,10.49213 2.40936,15.85976c-0.54524,-5.36764 -1.35204,-10.66159 -2.40936,-15.85976l0.3463,-0.07368c-1.41098,-7.8912 -2.15148,-16.01818 -2.15148,-24.32567c0,-24.9409 6.646,-48.32715 18.27649,-68.49723c-23.74728,-41.2096 -68.24303,-68.9651 -119.22637,-68.9651c-37.14611,0 -70.86238,14.73613 -95.58593,38.68235c-25.82139,24.99248 -41.87641,60.00922 -41.87641,98.77998c0,75.92056 61.54178,137.46233 137.46233,137.46233c40.47279,0 76.85999,-17.48074 102.01456,-45.30624l0,0c1.63571,-1.81254 3.22353,-3.66193 4.75977,-5.55552c-1.53624,1.89359 -3.12406,3.74298 -4.75977,5.55552c-16.12501,71.07974 -79.49407,124.3877 -155.23411,125.05451l0,0l-0.01474,0c-0.47156,0.01842 -0.96153,0.01842 -1.4294,0.01842c-0.47156,0 -0.95785,0 -1.42572,-0.01842l-0.01842,0c-14.80981,0.76259 -26.56556,13.00464 -26.56556,27.97655c0,15.47294 12.53308,28.02812 28.0097,28.02812c8.70537,0 16.47868,-3.97507 21.61791,-10.20109c-5.13923,6.22602 -12.91254,10.20109 -21.61791,10.20109c101.34775,0 186.45997,-69.61718 210.08199,-163.6337c-14.64772,-11.10736 -27.00028,-25.08458 -36.19194,-41.08434" id="path32"/>
  <path stroke="null" fill-rule="nonzero" fill="#ffffff" d="m207.01401,238.41337c0,16.23922 -13.16305,29.40227 -29.40227,29.40227c-16.23922,0 -29.40227,-13.16305 -29.40227,-29.40227c0,-16.23922 13.16305,-29.40595 29.40227,-29.40595c16.23922,0 29.40227,13.16673 29.40227,29.40595" id="path34"/>
  <path stroke="null" fill-rule="nonzero" fill="#66bb6a" d="m455.98835,238.41337c0,16.23922 -13.16673,29.40227 -29.40595,29.40227c-16.23553,0 -29.39859,-13.16305 -29.39859,-29.40227c0,-16.23922 13.16305,-29.40595 29.39859,-29.40595c16.23922,0 29.40595,13.16673 29.40595,29.40595" id="path36"/>
  <path stroke="null" fill-rule="nonzero" fill="#89d38c" d="m95.04151,282.71387c0,-75.80267 61.44967,-137.25234 137.25234,-137.25234c32.49317,0 62.32647,11.31735 85.83797,30.19065c-25.21352,-29.13333 -62.45173,-47.57192 -104.00394,-47.57192c-37.14611,0 -70.86238,14.73613 -95.58593,38.68235c-25.82139,24.99248 -41.87641,60.00922 -41.87641,98.77998c0,44.25261 20.92899,83.59071 53.41111,108.73792c-21.77632,-24.29252 -35.03516,-56.37676 -35.03516,-91.56665" id="path38"/>
  <path stroke="null" fill-rule="nonzero" fill="#4f9352" d="m316.88294,289.94194c1.05732,5.19817 1.86412,10.49213 2.40936,15.85976c-0.54524,-5.36764 -1.35204,-10.66159 -2.40936,-15.85976zm47.87401,81.36187c-0.3463,-0.28735 -0.6926,-0.57103 -1.03153,-0.86206c-1.49203,-1.25994 -2.95091,-2.55304 -4.38768,-3.8756c-0.33525,-0.30946 -0.65944,-0.62629 -0.98732,-0.93574c-1.17152,-1.10153 -2.32831,-2.2141 -3.44826,-3.35984c-0.36104,-0.3684 -0.73312,-0.72575 -1.09416,-1.09784c-1.28204,-1.32994 -2.53461,-2.68934 -3.76877,-4.06717c-0.43472,-0.48998 -0.86575,-0.97995 -1.2931,-1.46993c-5.7913,-6.67178 -10.96737,-13.89249 -15.39189,-21.5958c-7.76594,-13.45409 -13.31041,-28.3339 -16.12501,-44.17156c-1.41098,-7.8912 -2.15148,-16.01818 -2.15148,-24.32567c0,-24.9409 6.646,-48.32715 18.27649,-68.49723c-2.67092,-4.63083 -5.61447,-9.08483 -8.78642,-13.35462c-0.77733,1.21205 -1.54729,2.43146 -2.29147,3.6693c-0.50471,0.84733 -1.00943,1.69466 -1.49203,2.56777c-13.18515,22.89995 -20.15166,49.04922 -20.15166,75.61478c0,8.99641 0.79575,18.03703 2.36883,26.8566c3.06512,17.22286 9.07009,33.6647 17.82704,48.83923c0.70365,1.22678 1.42572,2.44251 2.16253,3.64719c14.45246,23.62571 17.36285,52.68904 6.35127,78.1015c-26.08296,60.18973 -81.7708,104.55655 -148.71705,114.70974c91.86874,-8.91168 166.96407,-75.18743 188.92091,-162.5727c-1.63203,-1.23415 -3.21616,-2.51619 -4.78924,-3.82034" id="path40"/>
  <path stroke="null" fill-rule="nonzero" fill="#d5d5d3" d="m512.5972,141.86959c32.89473,25.11405 54.14055,64.72478 54.14055,109.30895c0,75.92056 -61.54546,137.46602 -137.46233,137.46602c-21.55159,0 -41.93535,-4.96608 -60.08658,-13.80407c0.12157,0.0921 0.23578,0.19157 0.35735,0.28367c23.05836,17.49916 51.80856,27.88076 82.99758,27.88076c75.91687,0 137.46233,-61.54178 137.46233,-137.46233c0,-54.3837 -31.5869,-101.38459 -77.40891,-123.673" id="path42"/>
 </g>
</svg>